<?xml version="1.0" encoding="UTF-8"?><svg xmlns="http://www.w3.org/2000/svg" viewBox="0 0 431.59 431.59"><defs><style>.d{fill:#fff;}.e{fill:#6116f5;}</style></defs><g id="a"/><g id="b"><g id="c"><g><path class="e" d="M215.79,0C96.61,0,0,96.61,0,215.79s96.61,215.79,215.79,215.79,215.79-96.61,215.79-215.79S334.98,0,215.79,0Z"/><path class="d" d="M154.93,135.08l-10.89,40.5c-1.92,7.14-11.32,8.78-15.54,2.71l-33.05-47.48c-7.14-10.21-2.91-21.83,5.39-27.22,5.89-3.82,13.78-4.57,21.08,.33l28.58,19.3c3.86,2.6,5.63,7.37,4.42,11.86Z"/><path class="d" d="M237.29,195.58l-20.14,75.06c-2.67,9.95-15.75,12.24-21.64,3.78l-31.75-45.59c-3.74-5.37-4.92-12.13-3.23-18.45l14.29-53.34c1.94-7.24,10.43-10.42,16.64-6.23l38.9,26.23c6.03,4.07,8.81,11.51,6.93,18.54Z"/><path class="d" d="M321.03,320.37l-11.04,9.96c-13.45,12.2-31.12,16.35-47.39,13.2-9-1.73-17.63-5.7-24.88-11.84-5.54-4.69-7.89-12.18-6.01-19.19l25.62-95.51c2.42-9,12.98-12.95,20.71-7.75l36.84,24.81c11.62,7.8,19.17,19.17,22.41,31.54,4.98,18.92-.25,40.25-16.27,54.78Z"/></g></g></g></svg>