<svg id="SvgjsSvg1183" width="1030.0625" height="840" xmlns="http://www.w3.org/2000/svg" version="1.1" xmlns:xlink="http://www.w3.org/1999/xlink" xmlns:svgjs="http://svgjs.com/svgjs"><defs id="SvgjsDefs1184"><pattern patternUnits="userSpaceOnUse" id="pattern_mark_0" width="300" height="300"><text x="150" y="100" fill="rgba(229,229,229,0.8)" font-size="18" transform="rotate(-45, 150, 150)" style="dominant-baseline: middle; text-anchor: middle;"></text></pattern><pattern patternUnits="userSpaceOnUse" id="pattern_mark_1" width="300" height="300"><text x="150" y="200" fill="rgba(229,229,229,0.8)" font-size="18" transform="rotate(-45, 150, 150)" style="dominant-baseline: middle; text-anchor: middle;"></text></pattern><marker id="SvgjsMarker1220" markerWidth="13" markerHeight="9" refX="9.5" refY="4.5" viewBox="0 0 13 9" orient="auto" markerUnits="userSpaceOnUse" stroke-dasharray="0,0"><path id="SvgjsPath1221" d="M0,0 L13,4.5 L0,9 L0,0" fill="#323232" stroke="#323232" stroke-width="1"></path></marker><marker id="SvgjsMarker1228" markerWidth="13" markerHeight="9" refX="9.5" refY="4.5" viewBox="0 0 13 9" orient="auto" markerUnits="userSpaceOnUse" stroke-dasharray="0,0"><path id="SvgjsPath1229" d="M0,0 L13,4.5 L0,9 L0,0" fill="#323232" stroke="#323232" stroke-width="1"></path></marker><marker id="SvgjsMarker1236" markerWidth="13" markerHeight="9" refX="9.5" refY="4.5" viewBox="0 0 13 9" orient="auto" markerUnits="userSpaceOnUse" stroke-dasharray="0,0"><path id="SvgjsPath1237" d="M0,0 L13,4.5 L0,9 L0,0" fill="#323232" stroke="#323232" stroke-width="1"></path></marker><marker id="SvgjsMarker1246" markerWidth="13" markerHeight="9" refX="9.5" refY="4.5" viewBox="0 0 13 9" orient="auto" markerUnits="userSpaceOnUse" stroke-dasharray="0,0"><path id="SvgjsPath1247" d="M0,0 L13,4.5 L0,9 L0,0" fill="#323232" stroke="#323232" stroke-width="1"></path></marker><marker id="SvgjsMarker1260" markerWidth="13" markerHeight="9" refX="9.5" refY="4.5" viewBox="0 0 13 9" orient="auto" markerUnits="userSpaceOnUse" stroke-dasharray="0,0"><path id="SvgjsPath1261" d="M0,0 L13,4.5 L0,9 L0,0" fill="#323232" stroke="#323232" stroke-width="1"></path></marker><marker id="SvgjsMarker1270" markerWidth="13" markerHeight="9" refX="9.5" refY="4.5" viewBox="0 0 13 9" orient="auto" markerUnits="userSpaceOnUse" stroke-dasharray="0,0"><path id="SvgjsPath1271" d="M0,0 L13,4.5 L0,9 L0,0" fill="#323232" stroke="#323232" stroke-width="1"></path></marker><marker id="SvgjsMarker1284" markerWidth="13" markerHeight="9" refX="9.5" refY="4.5" viewBox="0 0 13 9" orient="auto" markerUnits="userSpaceOnUse" stroke-dasharray="0,0"><path id="SvgjsPath1285" d="M0,0 L13,4.5 L0,9 L0,0" fill="#323232" stroke="#323232" stroke-width="1"></path></marker><marker id="SvgjsMarker1310" markerWidth="13" markerHeight="9" refX="9.5" refY="4.5" viewBox="0 0 13 9" orient="auto" markerUnits="userSpaceOnUse" stroke-dasharray="0,0"><path id="SvgjsPath1311" d="M0,0 L13,4.5 L0,9 L0,0" fill="#323232" stroke="#323232" stroke-width="1"></path></marker><marker id="SvgjsMarker1320" markerWidth="13" markerHeight="9" refX="9.5" refY="4.5" viewBox="0 0 13 9" orient="auto" markerUnits="userSpaceOnUse" stroke-dasharray="0,0"><path id="SvgjsPath1321" d="M0,0 L13,4.5 L0,9 L0,0" fill="#323232" stroke="#323232" stroke-width="1"></path></marker><marker id="SvgjsMarker1334" markerWidth="13" markerHeight="9" refX="9.5" refY="4.5" viewBox="0 0 13 9" orient="auto" markerUnits="userSpaceOnUse" stroke-dasharray="0,0"><path id="SvgjsPath1335" d="M0,0 L13,4.5 L0,9 L0,0" fill="#323232" stroke="#323232" stroke-width="1"></path></marker><marker id="SvgjsMarker1342" markerWidth="13" markerHeight="9" refX="9.5" refY="4.5" viewBox="0 0 13 9" orient="auto" markerUnits="userSpaceOnUse" stroke-dasharray="0,0"><path id="SvgjsPath1343" d="M0,0 L13,4.5 L0,9 L0,0" fill="#323232" stroke="#323232" stroke-width="1"></path></marker><marker id="SvgjsMarker1346" markerWidth="13" markerHeight="9" refX="9.5" refY="4.5" viewBox="0 0 13 9" orient="auto" markerUnits="userSpaceOnUse" stroke-dasharray="0,0"><path id="SvgjsPath1347" d="M0,0 L13,4.5 L0,9 L0,0" fill="#323232" stroke="#323232" stroke-width="1"></path></marker><marker id="SvgjsMarker1350" markerWidth="13" markerHeight="9" refX="9.5" refY="4.5" viewBox="0 0 13 9" orient="auto" markerUnits="userSpaceOnUse" stroke-dasharray="0,0"><path id="SvgjsPath1351" d="M0,0 L13,4.5 L0,9 L0,0" fill="#323232" stroke="#323232" stroke-width="1"></path></marker><marker id="SvgjsMarker1354" markerWidth="13" markerHeight="9" refX="9.5" refY="4.5" viewBox="0 0 13 9" orient="auto" markerUnits="userSpaceOnUse" stroke-dasharray="0,0"><path id="SvgjsPath1355" d="M0,0 L13,4.5 L0,9 L0,0" fill="#323232" stroke="#323232" stroke-width="1"></path></marker><marker id="SvgjsMarker1358" markerWidth="13" markerHeight="9" refX="9.5" refY="4.5" viewBox="0 0 13 9" orient="auto" markerUnits="userSpaceOnUse" stroke-dasharray="0,0"><path id="SvgjsPath1359" d="M0,0 L13,4.5 L0,9 L0,0" fill="#323232" stroke="#323232" stroke-width="1"></path></marker></defs><rect id="svgbackgroundid" width="1030.0625" height="840" fill="#ffffff"></rect><rect id="SvgjsRect1186" width="1030.0625" height="840" fill="url(#pattern_mark_0)"></rect><rect id="SvgjsRect1187" width="1030.0625" height="840" fill="url(#pattern_mark_1)"></rect><g id="SvgjsG1188" transform="translate(181.59375,24.99999999999997)"><path id="SvgjsPath1189" d="M 20 0L 530.9375 0C 557.6041666666666 0 557.6041666666666 60 530.9375 60L 20 60C -6.666666666666667 60 -6.666666666666667 0 20 0Z" stroke="none" fill-opacity="1" fill="#2ea98e"></path><g id="SvgjsG1190"><text id="SvgjsText1191" font-family="微软雅黑" text-anchor="middle" font-size="20px" width="531px" fill="#ffffff" font-weight="700" align="middle" lineHeight="125%" anchor="middle" family="微软雅黑" size="20px" weight="700" font-style="" opacity="1" y="12" transform="rotate(0)"><tspan id="SvgjsTspan1192" dy="25" x="275.5"><tspan id="SvgjsTspan1193" style="text-decoration:;">scheduleUpdateOnFiber(root, fiber, lane, eventTime)</tspan></tspan></text></g></g><g id="SvgjsG1194" transform="translate(280.3125,150.83333333333343)"><path id="SvgjsPath1195" d="M 0 0L 353.5 0L 353.5 60L 0 60Z" stroke="none" fill-opacity="1" fill="#4c85d9"></path><g id="SvgjsG1196"><text id="SvgjsText1197" font-family="微软雅黑" text-anchor="middle" font-size="14px" width="334px" fill="#ffffff" font-weight="700" align="middle" lineHeight="125%" anchor="middle" family="微软雅黑" size="14px" weight="700" font-style="" opacity="1" y="18.25" transform="rotate(0)"><tspan id="SvgjsTspan1198" dy="17" x="177"><tspan id="SvgjsTspan1199" style="text-decoration:;">执行 ensureRootIsScheduled 注册调度任务</tspan></tspan></text></g></g><g id="SvgjsG1200" transform="translate(480.0625,374.49999999999994)"><path id="SvgjsPath1201" d="M 0 30L 111.5 0L 223 30L 111.5 60L 0 30Z" stroke="none" fill-opacity="1" fill="#8ba7e1"></path><g id="SvgjsG1202"><text id="SvgjsText1203" font-family="微软雅黑" text-anchor="middle" font-size="14px" width="203px" fill="#ffffff" font-weight="700" align="middle" lineHeight="125%" anchor="middle" family="微软雅黑" size="14px" weight="700" font-style="" opacity="1" y="18.25" transform="rotate(0)"><tspan id="SvgjsTspan1204" dy="17" x="111.5"><tspan id="SvgjsTspan1205" style="text-decoration:;fill: rgb(255, 255, 255);">是否开启时间分片</tspan></tspan></text></g></g><g id="SvgjsG1206" transform="translate(210.0625,264.5)"><path id="SvgjsPath1207" d="M 0 0L 223 0L 223 60L 0 60Z" stroke="none" fill-opacity="1" fill="#4c85d9"></path><g id="SvgjsG1208"><text id="SvgjsText1209" font-family="微软雅黑" text-anchor="middle" font-size="14px" width="203px" fill="#ffffff" font-weight="700" align="middle" lineHeight="125%" anchor="middle" family="微软雅黑" size="14px" weight="700" font-style="" opacity="1" y="18.25" transform="rotate(0)"><tspan id="SvgjsTspan1210" dy="17" x="111.5"><tspan id="SvgjsTspan1211" style="text-decoration:;">performSyncWorkOnRoot</tspan></tspan></text></g></g><g id="SvgjsG1212" transform="translate(473.875,264.5)"><path id="SvgjsPath1213" d="M 0 0L 235.375 0L 235.375 60L 0 60Z" stroke="none" fill-opacity="1" fill="#4c85d9"></path><g id="SvgjsG1214"><text id="SvgjsText1215" font-family="微软雅黑" text-anchor="middle" font-size="14px" width="216px" fill="#ffffff" font-weight="700" align="middle" lineHeight="125%" anchor="middle" family="微软雅黑" size="14px" weight="700" font-style="" opacity="1" y="18.25" transform="rotate(0)"><tspan id="SvgjsTspan1216" dy="17" x="118"><tspan id="SvgjsTspan1217" style="text-decoration:;">performConcurrentWorkOnRoot</tspan></tspan></text></g></g><g id="SvgjsG1218"><path id="SvgjsPath1219" d="M593.3125 210.20396270396282L593.3125 237.23003013246932L592.3750000000018 237.23003013246932L592.3750000000018 262.3060975609758" stroke="#323232" stroke-width="1.5" fill="none" marker-end="url(#SvgjsMarker1220)"></path><rect id="SvgjsRect1222" width="123" height="16" x="531.3691987740814" y="226.84069897610553" fill="#ffffff"></rect><text id="SvgjsText1223" font-family="微软雅黑" text-anchor="middle" font-size="13px" width="123px" fill="#323232" font-weight="700" align="top" lineHeight="16px" anchor="middle" family="微软雅黑" size="13px" weight="700" font-style="" opacity="1" y="224.21569897610553" transform="rotate(0)"><tspan id="SvgjsTspan1224" dy="16" x="592.8691987740814"><tspan id="SvgjsTspan1225" style="text-decoration:;">concurrent 并发模式</tspan></tspan></text></g><g id="SvgjsG1226"><path id="SvgjsPath1227" d="M320.5625 210.20396270396282L320.5625 237.23003013246932L320.56249999999994 237.23003013246932L320.56249999999994 262.3060975609758" stroke="#323232" stroke-width="1.5" fill="none" marker-end="url(#SvgjsMarker1228)"></path><rect id="SvgjsRect1230" width="85" height="16" x="278.0625" y="228.48314806091506" fill="#ffffff"></rect><text id="SvgjsText1231" font-family="微软雅黑" text-anchor="middle" font-size="13px" width="85px" fill="#323232" font-weight="700" align="top" lineHeight="16px" anchor="middle" family="微软雅黑" size="13px" weight="700" font-style="" opacity="1" y="225.85814806091506" transform="rotate(0)"><tspan id="SvgjsTspan1232" dy="16" x="320.5625"><tspan id="SvgjsTspan1233" style="text-decoration:;">sync 同步模式</tspan></tspan></text></g><g id="SvgjsG1234"><path id="SvgjsPath1235" d="M591.5625 324.5L591.5625 349.5L591.5625 349.5L591.5625 372.54999999999995" stroke="#323232" stroke-width="1.5" fill="none" marker-end="url(#SvgjsMarker1236)"></path></g><g id="SvgjsG1238" transform="translate(493.0625,484)"><path id="SvgjsPath1239" d="M 0 0L 197 0L 197 60L 0 60Z" stroke="none" fill-opacity="1" fill="#4c85d9"></path><g id="SvgjsG1240"><text id="SvgjsText1241" font-family="微软雅黑" text-anchor="middle" font-size="14px" width="177px" fill="#ffffff" font-weight="700" align="middle" lineHeight="125%" anchor="middle" family="微软雅黑" size="14px" weight="700" font-style="" opacity="1" y="18.25" transform="rotate(0)"><tspan id="SvgjsTspan1242" dy="17" x="98.5"><tspan id="SvgjsTspan1243" style="text-decoration:;">renderRootConcurrent</tspan></tspan></text></g></g><g id="SvgjsG1244"><path id="SvgjsPath1245" d="M591.5625 434.5L591.5625 459.25L591.5625 459.25L591.5625 482.04999999999995" stroke="#323232" stroke-width="1.5" fill="none" marker-end="url(#SvgjsMarker1246)"></path><rect id="SvgjsRect1248" width="26" height="16" x="578.5625" y="445.6788782816227" fill="#ffffff"></rect><text id="SvgjsText1249" font-family="微软雅黑" text-anchor="middle" font-size="13px" width="26px" fill="#323232" font-weight="700" align="top" lineHeight="16px" anchor="middle" family="微软雅黑" size="13px" weight="700" font-style="" opacity="1" y="443.0538782816227" transform="rotate(0)"><tspan id="SvgjsTspan1250" dy="16" x="591.5625"><tspan id="SvgjsTspan1251" style="text-decoration:;">开启</tspan></tspan></text></g><g id="SvgjsG1252" transform="translate(254.3125,374.5)"><path id="SvgjsPath1253" d="M 0 0L 134.5 0L 134.5 60L 0 60Z" stroke="none" fill-opacity="1" fill="#4c85d9"></path><g id="SvgjsG1254"><text id="SvgjsText1255" font-family="微软雅黑" text-anchor="middle" font-size="14px" width="115px" fill="#ffffff" font-weight="700" align="middle" lineHeight="125%" anchor="middle" family="微软雅黑" size="14px" weight="700" font-style="" opacity="1" y="18.25" transform="rotate(0)"><tspan id="SvgjsTspan1256" dy="17" x="67.5"><tspan id="SvgjsTspan1257" style="text-decoration:;">workLoopSync</tspan></tspan></text></g></g><g id="SvgjsG1258"><path id="SvgjsPath1259" d="M321.5625 324.5L321.5625 349.5L321.5625 349.5L321.5625 372.55" stroke="#323232" stroke-width="1.5" fill="none" marker-end="url(#SvgjsMarker1260)"></path></g><g id="SvgjsG1262" transform="translate(212.14930555555543,660.3750000000005)"><path id="SvgjsPath1263" d="M 0 0L 484.11979166666777 0L 484.11979166666777 60L 0 60Z" stroke="none" fill-opacity="1" fill="#4c85d9"></path><g id="SvgjsG1264"><text id="SvgjsText1265" font-family="微软雅黑" text-anchor="middle" font-size="14px" width="465px" fill="#ffffff" font-weight="700" align="middle" lineHeight="125%" anchor="middle" family="微软雅黑" size="14px" weight="700" font-style="" opacity="1" y="18.25" transform="rotate(0)"><tspan id="SvgjsTspan1266" dy="17" x="242.5"><tspan id="SvgjsTspan1267" style="text-decoration:;">performUnitOfWork</tspan></tspan></text></g></g><g id="SvgjsG1268"><path id="SvgjsPath1269" d="M480.0625 404.5L434.4375 404.5L434.4375 404.5L390.7625 404.5" stroke="#323232" stroke-width="1.5" fill="none" marker-end="url(#SvgjsMarker1270)"></path><rect id="SvgjsRect1272" width="39" height="16" x="422.0875" y="396.5" fill="#ffffff"></rect><text id="SvgjsText1273" font-family="微软雅黑" text-anchor="middle" font-size="13px" width="39px" fill="#323232" font-weight="700" align="top" lineHeight="16px" anchor="middle" family="微软雅黑" size="13px" weight="700" font-style="" opacity="1" y="393.875" transform="rotate(0)"><tspan id="SvgjsTspan1274" dy="16" x="441.5875"><tspan id="SvgjsTspan1275" style="text-decoration:;">未开启</tspan></tspan></text></g><g id="SvgjsG1276" transform="translate(493.0625,572.1875000000002)"><path id="SvgjsPath1277" d="M 0 0L 197 0L 197 60L 0 60Z" stroke="none" fill-opacity="1" fill="#4c85d9"></path><g id="SvgjsG1278"><text id="SvgjsText1279" font-family="微软雅黑" text-anchor="middle" font-size="14px" width="177px" fill="#ffffff" font-weight="700" align="middle" lineHeight="125%" anchor="middle" family="微软雅黑" size="14px" weight="700" font-style="" opacity="1" y="18.25" transform="rotate(0)"><tspan id="SvgjsTspan1280" dy="17" x="98.5"><tspan id="SvgjsTspan1281" style="text-decoration:;">workLoopConcurrent</tspan></tspan></text></g></g><g id="SvgjsG1282"><path id="SvgjsPath1283" d="M591.5625 544L591.5625 558.0937500000001L591.5625 558.0937500000001L591.5625 570.2375000000002" stroke="#323232" stroke-width="1.5" fill="none" marker-end="url(#SvgjsMarker1284)"></path></g><g id="SvgjsG1286" transform="translate(212.14930555555543,755)"><path id="SvgjsPath1287" d="M 0 0L 174.60416666666674 0L 174.60416666666674 60L 0 60Z" stroke="none" fill-opacity="1" fill="#4c85d9"></path><g id="SvgjsG1288"><text id="SvgjsText1289" font-family="微软雅黑" text-anchor="middle" font-size="14px" width="155px" fill="#ffffff" font-weight="700" align="middle" lineHeight="125%" anchor="middle" family="微软雅黑" size="14px" weight="700" font-style="" opacity="1" y="9.75" transform="rotate(0)"><tspan id="SvgjsTspan1290" dy="17" x="87.5"><tspan id="SvgjsTspan1291" style="text-decoration:;">调用 beginWork</tspan></tspan><tspan id="SvgjsTspan1292" dy="17" x="87.5"><tspan id="SvgjsTspan1293" style="text-decoration:;">进入 “递” 阶段</tspan></tspan></text></g></g><g id="SvgjsG1294" transform="translate(481.4565972222232,755)"><path id="SvgjsPath1295" d="M 0 0L 214.81250000000006 0L 214.81250000000006 60L 0 60Z" stroke="none" fill-opacity="1" fill="#4c85d9"></path><g id="SvgjsG1296"><text id="SvgjsText1297" font-family="微软雅黑" text-anchor="middle" font-size="14px" width="195px" fill="#ffffff" font-weight="700" align="middle" lineHeight="125%" anchor="middle" family="微软雅黑" size="14px" weight="700" font-style="" opacity="1" y="9.75" transform="rotate(0)"><tspan id="SvgjsTspan1298" dy="17" x="107.5"><tspan id="SvgjsTspan1299" style="text-decoration:;">调用 completeUnitOfWork </tspan></tspan><tspan id="SvgjsTspan1300" dy="17" x="107.5"><tspan id="SvgjsTspan1301" style="text-decoration:;">进入 “归” 阶段</tspan></tspan></text></g></g><g id="SvgjsG1302" transform="translate(808.0625,264.5)"><path id="SvgjsPath1303" d="M 0 0L 197 0L 197 60L 0 60Z" stroke="none" fill-opacity="1" fill="#4c85d9"></path><g id="SvgjsG1304"><text id="SvgjsText1305" font-family="微软雅黑" text-anchor="middle" font-size="14px" width="177px" fill="#ffffff" font-weight="700" align="middle" lineHeight="125%" anchor="middle" family="微软雅黑" size="14px" weight="700" font-style="" opacity="1" y="18.25" transform="rotate(0)"><tspan id="SvgjsTspan1306" dy="17" x="98.5"><tspan id="SvgjsTspan1307" style="text-decoration:;">finishConcurrentRender</tspan></tspan></text></g></g><g id="SvgjsG1308"><path id="SvgjsPath1309" d="M709.25 294.4999999999999L758.65625 294.4999999999999L758.65625 294.4999999999999L806.1125 294.4999999999999" stroke="#323232" stroke-width="1.5" fill="none" marker-end="url(#SvgjsMarker1310)"></path></g><g id="SvgjsG1312" transform="translate(25.006944444444485,384.99999999999994)"><path id="SvgjsPath1313" d="M 20 0L 134.44444444444437 0C 161.11111111111103 0 161.11111111111103 60 134.44444444444437 60L 20 60C -6.666666666666667 60 -6.666666666666667 0 20 0Z" stroke="none" fill-opacity="1" fill="#2ea98e"></path><g id="SvgjsG1314"><text id="SvgjsText1315" font-family="微软雅黑" text-anchor="middle" font-size="18px" width="135px" fill="#ffffff" font-weight="700" align="middle" lineHeight="125%" anchor="middle" family="微软雅黑" size="18px" weight="700" font-style="" opacity="1" y="14.25" transform="rotate(0)"><tspan id="SvgjsTspan1316" dy="22" x="77.5"><tspan id="SvgjsTspan1317" style="text-decoration:;">commitRoot</tspan></tspan></text></g></g><g id="SvgjsG1318"><path id="SvgjsPath1319" d="M906.5625 324.5L906.5625 357.25L906.5625000000001 357.25L906.5625000000001 388.04999999999995" stroke="#323232" stroke-width="1.5" fill="none" marker-end="url(#SvgjsMarker1320)"></path><rect id="SvgjsRect1322" width="107" height="16" x="853.0625000000001" y="348.09896121883645" fill="#ffffff"></rect><text id="SvgjsText1323" font-family="微软雅黑" text-anchor="middle" font-size="13px" width="107px" fill="#323232" font-weight="700" align="top" lineHeight="16px" anchor="middle" family="微软雅黑" size="13px" weight="700" font-style="" opacity="1" y="345.47396121883645" transform="rotate(0)"><tspan id="SvgjsTspan1324" dy="16" x="906.5625000000001"><tspan id="SvgjsTspan1325" style="text-decoration:;">进入 commit 阶段</tspan></tspan></text></g><g id="SvgjsG1326" transform="translate(834.690972222223,389.99999999999994)"><path id="SvgjsPath1327" d="M 20 0L 123.74305555555418 0C 150.40972222222084 0 150.40972222222084 60 123.74305555555418 60L 20 60C -6.666666666666667 60 -6.666666666666667 0 20 0Z" stroke="none" fill-opacity="1" fill="#2ea98e"></path><g id="SvgjsG1328"><text id="SvgjsText1329" font-family="微软雅黑" text-anchor="middle" font-size="18px" width="124px" fill="#ffffff" font-weight="700" align="middle" lineHeight="125%" anchor="middle" family="微软雅黑" size="18px" weight="700" font-style="" opacity="1" y="14.25" transform="rotate(0)"><tspan id="SvgjsTspan1330" dy="22" x="72"><tspan id="SvgjsTspan1331" style="text-decoration:;">commitRoot</tspan></tspan></text></g></g><g id="SvgjsG1332"><path id="SvgjsPath1333" d="M210.0625 294.5L102.22916666666669 294.5L102.22916666666669 383.04999999999995" stroke="#323232" stroke-width="1.5" fill="none" marker-end="url(#SvgjsMarker1334)"></path><rect id="SvgjsRect1336" width="107" height="16" x="48.729166666666686" y="303.8238939882576" fill="#ffffff"></rect><text id="SvgjsText1337" font-family="微软雅黑" text-anchor="middle" font-size="13px" width="107px" fill="#323232" font-weight="700" align="top" lineHeight="16px" anchor="middle" family="微软雅黑" size="13px" weight="700" font-style="" opacity="1" y="301.1988939882576" transform="rotate(0)"><tspan id="SvgjsTspan1338" dy="16" x="102.22916666666669"><tspan id="SvgjsTspan1339" style="text-decoration:;">进入 commit 阶段</tspan></tspan></text></g><g id="SvgjsG1340"><path id="SvgjsPath1341" d="M457.0625 84.99999999999997L457.0625 117.91666666666669L457.0625 117.91666666666669L457.0625 148.88333333333344" stroke="#323232" stroke-width="1.5" fill="none" marker-end="url(#SvgjsMarker1342)"></path></g><g id="SvgjsG1344"><path id="SvgjsPath1345" d="M321.5625 434.5L321.5625 547.75L321.5625 547.75L321.5625 659.05" stroke="#323232" stroke-width="1.5" fill="none" marker-end="url(#SvgjsMarker1346)"></path></g><g id="SvgjsG1348"><path id="SvgjsPath1349" d="M299.5625 720L299.5625 737.5L299.5625 737.5L299.5625 753.05" stroke="#323232" stroke-width="1.5" fill="none" marker-end="url(#SvgjsMarker1350)"></path></g><g id="SvgjsG1352"><path id="SvgjsPath1353" d="M591.5625 632.1875000000002L591.5625 646.5937500000001L591.5625 646.5937500000001L591.5625 659.05" stroke="#323232" stroke-width="1.5" fill="none" marker-end="url(#SvgjsMarker1354)"></path></g><g id="SvgjsG1356"><path id="SvgjsPath1357" d="M590.5625 717L590.5625 736L590.5625 736L590.5625 753.05" stroke="#323232" stroke-width="1.5" fill="none" marker-end="url(#SvgjsMarker1358)"></path></g><g id="SvgjsG1360" transform="translate(52.229166666666686,554)"><path id="SvgjsPath1361" d="M 0 0L 100 0L 100 40L 0 40Z" stroke="none" fill="none"></path><g id="SvgjsG1362"><text id="SvgjsText1363" font-family="微软雅黑" text-anchor="middle" font-size="14px" width="100px" fill="#2ea98e" font-weight="700" align="middle" lineHeight="125%" anchor="middle" family="微软雅黑" size="14px" weight="700" font-style="" opacity="1" y="8.25" transform="rotate(0)"><tspan id="SvgjsTspan1364" dy="17" x="50"><tspan id="SvgjsTspan1365" style="text-decoration:;">茂茂物语</tspan></tspan></text></g></g></svg>